<svg viewBox="0 0 400 300" xmlns="http://www.w3.org/2000/svg">
  <!-- Sky background -->
  <rect width="400" height="300" fill="#f0f9ff"/>
  
  <!-- Clouds -->
  <g fill="#ffffff" opacity="0.8">
    <ellipse cx="80" cy="60" rx="25" ry="15"/>
    <ellipse cx="95" cy="55" rx="30" ry="18"/>
    <ellipse cx="110" cy="60" rx="20" ry="12"/>
    
    <ellipse cx="280" cy="80" rx="35" ry="20"/>
    <ellipse cx="300" cy="75" rx="25" ry="15"/>
    <ellipse cx="320" cy="80" rx="30" ry="18"/>
  </g>
  
  <!-- Buildings -->
  <g fill="#1f2937">
    <!-- Left building -->
    <rect x="40" y="120" width="80" height="120"/>
    <rect x="50" y="135" width="15" height="15" fill="#ffffff" opacity="0.3"/>
    <rect x="75" y="135" width="15" height="15" fill="#ffffff" opacity="0.3"/>
    <rect x="100" y="135" width="15" height="15" fill="#ffffff" opacity="0.3"/>
    <rect x="50" y="160" width="15" height="15" fill="#ffffff" opacity="0.3"/>
    <rect x="75" y="160" width="15" height="15" fill="#ffffff" opacity="0.3"/>
    <rect x="100" y="160" width="15" height="15" fill="#ffffff" opacity="0.3"/>
    
    <!-- Center building -->
    <rect x="160" y="100" width="100" height="140"/>
    <rect x="170" y="120" width="12" height="12" fill="#ffffff" opacity="0.3"/>
    <rect x="190" y="120" width="12" height="12" fill="#ffffff" opacity="0.3"/>
    <rect x="210" y="120" width="12" height="12" fill="#ffffff" opacity="0.3"/>
    <rect x="230" y="120" width="12" height="12" fill="#ffffff" opacity="0.3"/>
    
    <!-- Tall building -->
    <rect x="280" y="40" width="60" height="200"/>
    <!-- Windows pattern -->
    <g fill="#ffffff" opacity="0.4">
      <circle cx="295" cy="60" r="3"/>
      <circle cx="310" cy="60" r="3"/>
      <circle cx="325" cy="60" r="3"/>
      <circle cx="295" cy="80" r="3"/>
      <circle cx="310" cy="80" r="3"/>
      <circle cx="325" cy="80" r="3"/>
      <circle cx="295" cy="100" r="3"/>
      <circle cx="310" cy="100" r="3"/>
      <circle cx="325" cy="100" r="3"/>
      <circle cx="295" cy="120" r="3"/>
      <circle cx="310" cy="120" r="3"/>
      <circle cx="325" cy="120" r="3"/>
      <circle cx="295" cy="140" r="3"/>
      <circle cx="310" cy="140" r="3"/>
      <circle cx="325" cy="140" r="3"/>
    </g>
  </g>
  
  <!-- Ground with trees/bushes -->
  <g fill="#1f2937">
    <ellipse cx="60" cy="270" rx="25" ry="15"/>
    <ellipse cx="120" cy="275" rx="30" ry="18"/>
    <ellipse cx="200" cy="270" rx="35" ry="20"/>
    <ellipse cx="320" cy="275" rx="25" ry="15"/>
  </g>
  
  <!-- Birds -->
  <g stroke="#1f2937" stroke-width="2" fill="none">
    <path d="M150 40 L145 45 L150 50"/>
    <path d="M155 45 L150 50 L155 55"/>
    
    <path d="M220 55 L215 60 L220 65"/>
    <path d="M225 60 L220 65 L225 70"/>
  </g>
</svg>
